ISO-10303-21;
HEADER;
/* Generated by software containing ST-Developer
 * from STEP Tools, Inc. (www.steptools.com) 
 */

FILE_DESCRIPTION(
/* description */ (''),
/* implementation_level */ '2;1');

FILE_NAME(
/* name */ 'ShellConnector.step',
/* time_stamp */ '2025-12-10T11:54:19-05:00',
/* author */ (''),
/* organization */ (''),
/* preprocessor_version */ 'ST-DEVELOPER v20.1',
/* originating_system */ 'Autodesk Translation Framework v14.21.0.0',
/* authorisation */ '');

FILE_SCHEMA (('AUTOMOTIVE_DESIGN { 1 0 10303 214 3 1 1 }'));
ENDSEC;

DATA;
#10=MECHANICAL_DESIGN_GEOMETRIC_PRESENTATION_REPRESENTATION('',(#13),#315);
#11=SHAPE_REPRESENTATION_RELATIONSHIP('SRR','None',#322,#12);
#12=ADVANCED_BREP_SHAPE_REPRESENTATION('',(#14),#314);
#13=STYLED_ITEM('',(#331),#14);
#14=MANIFOLD_SOLID_BREP('Body1',#177);
#15=FACE_BOUND('',#46,.T.);
#16=FACE_BOUND('',#47,.T.);
#17=FACE_BOUND('',#49,.T.);
#18=FACE_BOUND('',#50,.T.);
#19=PLANE('',#201);
#20=PLANE('',#205);
#21=PLANE('',#209);
#22=PLANE('',#210);
#23=CYLINDRICAL_SURFACE('',#194,1.2645);
#24=CYLINDRICAL_SURFACE('',#199,1.2645);
#25=CYLINDRICAL_SURFACE('',#202,9.75);
#26=CYLINDRICAL_SURFACE('',#206,9.75);
#27=FACE_OUTER_BOUND('',#37,.T.);
#28=FACE_OUTER_BOUND('',#38,.T.);
#29=FACE_OUTER_BOUND('',#39,.T.);
#30=FACE_OUTER_BOUND('',#40,.T.);
#31=FACE_OUTER_BOUND('',#41,.T.);
#32=FACE_OUTER_BOUND('',#42,.T.);
#33=FACE_OUTER_BOUND('',#43,.T.);
#34=FACE_OUTER_BOUND('',#44,.T.);
#35=FACE_OUTER_BOUND('',#45,.T.);
#36=FACE_OUTER_BOUND('',#48,.T.);
#37=EDGE_LOOP('',(#121,#122,#123,#124));
#38=EDGE_LOOP('',(#125,#126,#127,#128));
#39=EDGE_LOOP('',(#129,#130,#131,#132));
#40=EDGE_LOOP('',(#133,#134,#135,#136));
#41=EDGE_LOOP('',(#137,#138,#139,#140));
#42=EDGE_LOOP('',(#141,#142,#143,#144));
#43=EDGE_LOOP('',(#145,#146,#147,#148));
#44=EDGE_LOOP('',(#149,#150,#151,#152));
#45=EDGE_LOOP('',(#153,#154,#155,#156));
#46=EDGE_LOOP('',(#157));
#47=EDGE_LOOP('',(#158));
#48=EDGE_LOOP('',(#159,#160,#161,#162));
#49=EDGE_LOOP('',(#163));
#50=EDGE_LOOP('',(#164));
#51=LINE('',#270,#63);
#52=LINE('',#274,#64);
#53=LINE('',#280,#65);
#54=LINE('',#284,#66);
#55=LINE('',#289,#67);
#56=LINE('',#291,#68);
#57=LINE('',#293,#69);
#58=LINE('',#294,#70);
#59=LINE('',#300,#71);
#60=LINE('',#303,#72);
#61=LINE('',#305,#73);
#62=LINE('',#306,#74);
#63=VECTOR('',#217,1.32775);
#64=VECTOR('',#222,1.2645);
#65=VECTOR('',#229,1.32775);
#66=VECTOR('',#234,1.2645);
#67=VECTOR('',#239,10.);
#68=VECTOR('',#240,10.);
#69=VECTOR('',#241,10.);
#70=VECTOR('',#242,10.);
#71=VECTOR('',#249,10.);
#72=VECTOR('',#252,10.);
#73=VECTOR('',#253,10.);
#74=VECTOR('',#254,10.);
#75=CIRCLE('',#192,1.391);
#76=CIRCLE('',#193,1.2645);
#77=CIRCLE('',#195,1.2645);
#78=CIRCLE('',#197,1.391);
#79=CIRCLE('',#198,1.2645);
#80=CIRCLE('',#200,1.2645);
#81=CIRCLE('',#203,9.75);
#82=CIRCLE('',#204,9.75);
#83=CIRCLE('',#207,9.75);
#84=CIRCLE('',#208,9.75);
#85=VERTEX_POINT('',#267);
#86=VERTEX_POINT('',#269);
#87=VERTEX_POINT('',#273);
#88=VERTEX_POINT('',#277);
#89=VERTEX_POINT('',#279);
#90=VERTEX_POINT('',#283);
#91=VERTEX_POINT('',#287);
#92=VERTEX_POINT('',#288);
#93=VERTEX_POINT('',#290);
#94=VERTEX_POINT('',#292);
#95=VERTEX_POINT('',#296);
#96=VERTEX_POINT('',#298);
#97=VERTEX_POINT('',#302);
#98=VERTEX_POINT('',#304);
#99=EDGE_CURVE('',#85,#85,#75,.T.);
#100=EDGE_CURVE('',#85,#86,#51,.T.);
#101=EDGE_CURVE('',#86,#86,#76,.T.);
#102=EDGE_CURVE('',#86,#87,#52,.T.);
#103=EDGE_CURVE('',#87,#87,#77,.T.);
#104=EDGE_CURVE('',#88,#88,#78,.T.);
#105=EDGE_CURVE('',#88,#89,#53,.T.);
#106=EDGE_CURVE('',#89,#89,#79,.T.);
#107=EDGE_CURVE('',#89,#90,#54,.T.);
#108=EDGE_CURVE('',#90,#90,#80,.T.);
#109=EDGE_CURVE('',#91,#92,#55,.T.);
#110=EDGE_CURVE('',#92,#93,#56,.T.);
#111=EDGE_CURVE('',#94,#93,#57,.T.);
#112=EDGE_CURVE('',#91,#94,#58,.T.);
#113=EDGE_CURVE('',#95,#91,#81,.T.);
#114=EDGE_CURVE('',#96,#94,#82,.T.);
#115=EDGE_CURVE('',#95,#96,#59,.T.);
#116=EDGE_CURVE('',#97,#95,#60,.T.);
#117=EDGE_CURVE('',#98,#96,#61,.T.);
#118=EDGE_CURVE('',#97,#98,#62,.T.);
#119=EDGE_CURVE('',#92,#97,#83,.T.);
#120=EDGE_CURVE('',#93,#98,#84,.T.);
#121=ORIENTED_EDGE('',*,*,#99,.F.);
#122=ORIENTED_EDGE('',*,*,#100,.T.);
#123=ORIENTED_EDGE('',*,*,#101,.T.);
#124=ORIENTED_EDGE('',*,*,#100,.F.);
#125=ORIENTED_EDGE('',*,*,#101,.F.);
#126=ORIENTED_EDGE('',*,*,#102,.T.);
#127=ORIENTED_EDGE('',*,*,#103,.F.);
#128=ORIENTED_EDGE('',*,*,#102,.F.);
#129=ORIENTED_EDGE('',*,*,#104,.F.);
#130=ORIENTED_EDGE('',*,*,#105,.T.);
#131=ORIENTED_EDGE('',*,*,#106,.T.);
#132=ORIENTED_EDGE('',*,*,#105,.F.);
#133=ORIENTED_EDGE('',*,*,#106,.F.);
#134=ORIENTED_EDGE('',*,*,#107,.T.);
#135=ORIENTED_EDGE('',*,*,#108,.F.);
#136=ORIENTED_EDGE('',*,*,#107,.F.);
#137=ORIENTED_EDGE('',*,*,#109,.T.);
#138=ORIENTED_EDGE('',*,*,#110,.T.);
#139=ORIENTED_EDGE('',*,*,#111,.F.);
#140=ORIENTED_EDGE('',*,*,#112,.F.);
#141=ORIENTED_EDGE('',*,*,#113,.T.);
#142=ORIENTED_EDGE('',*,*,#112,.T.);
#143=ORIENTED_EDGE('',*,*,#114,.F.);
#144=ORIENTED_EDGE('',*,*,#115,.F.);
#145=ORIENTED_EDGE('',*,*,#116,.T.);
#146=ORIENTED_EDGE('',*,*,#115,.T.);
#147=ORIENTED_EDGE('',*,*,#117,.F.);
#148=ORIENTED_EDGE('',*,*,#118,.F.);
#149=ORIENTED_EDGE('',*,*,#119,.T.);
#150=ORIENTED_EDGE('',*,*,#118,.T.);
#151=ORIENTED_EDGE('',*,*,#120,.F.);
#152=ORIENTED_EDGE('',*,*,#110,.F.);
#153=ORIENTED_EDGE('',*,*,#120,.T.);
#154=ORIENTED_EDGE('',*,*,#117,.T.);
#155=ORIENTED_EDGE('',*,*,#114,.T.);
#156=ORIENTED_EDGE('',*,*,#111,.T.);
#157=ORIENTED_EDGE('',*,*,#103,.T.);
#158=ORIENTED_EDGE('',*,*,#108,.T.);
#159=ORIENTED_EDGE('',*,*,#119,.F.);
#160=ORIENTED_EDGE('',*,*,#109,.F.);
#161=ORIENTED_EDGE('',*,*,#113,.F.);
#162=ORIENTED_EDGE('',*,*,#116,.F.);
#163=ORIENTED_EDGE('',*,*,#99,.T.);
#164=ORIENTED_EDGE('',*,*,#104,.T.);
#165=CONICAL_SURFACE('',#191,1.32775,0.785398163397448);
#166=CONICAL_SURFACE('',#196,1.32775,0.785398163397448);
#167=ADVANCED_FACE('',(#27),#165,.F.);
#168=ADVANCED_FACE('',(#28),#23,.F.);
#169=ADVANCED_FACE('',(#29),#166,.F.);
#170=ADVANCED_FACE('',(#30),#24,.F.);
#171=ADVANCED_FACE('',(#31),#19,.T.);
#172=ADVANCED_FACE('',(#32),#25,.T.);
#173=ADVANCED_FACE('',(#33),#20,.T.);
#174=ADVANCED_FACE('',(#34),#26,.T.);
#175=ADVANCED_FACE('',(#35,#15,#16),#21,.T.);
#176=ADVANCED_FACE('',(#36,#17,#18),#22,.F.);
#177=CLOSED_SHELL('',(#167,#168,#169,#170,#171,#172,#173,#174,#175,#176));
#178=DERIVED_UNIT_ELEMENT(#180,1.);
#179=DERIVED_UNIT_ELEMENT(#317,-3.);
#180=(
MASS_UNIT()
NAMED_UNIT(*)
SI_UNIT(.KILO.,.GRAM.)
);
#181=DERIVED_UNIT((#178,#179));
#182=MEASURE_REPRESENTATION_ITEM('density measure',
POSITIVE_RATIO_MEASURE(7850.),#181);
#183=PROPERTY_DEFINITION_REPRESENTATION(#188,#185);
#184=PROPERTY_DEFINITION_REPRESENTATION(#189,#186);
#185=REPRESENTATION('material name',(#187),#314);
#186=REPRESENTATION('density',(#182),#314);
#187=DESCRIPTIVE_REPRESENTATION_ITEM('Steel','Steel');
#188=PROPERTY_DEFINITION('material property','material name',#324);
#189=PROPERTY_DEFINITION('material property','density of part',#324);
#190=AXIS2_PLACEMENT_3D('',#265,#211,#212);
#191=AXIS2_PLACEMENT_3D('',#266,#213,#214);
#192=AXIS2_PLACEMENT_3D('',#268,#215,#216);
#193=AXIS2_PLACEMENT_3D('',#271,#218,#219);
#194=AXIS2_PLACEMENT_3D('',#272,#220,#221);
#195=AXIS2_PLACEMENT_3D('',#275,#223,#224);
#196=AXIS2_PLACEMENT_3D('',#276,#225,#226);
#197=AXIS2_PLACEMENT_3D('',#278,#227,#228);
#198=AXIS2_PLACEMENT_3D('',#281,#230,#231);
#199=AXIS2_PLACEMENT_3D('',#282,#232,#233);
#200=AXIS2_PLACEMENT_3D('',#285,#235,#236);
#201=AXIS2_PLACEMENT_3D('',#286,#237,#238);
#202=AXIS2_PLACEMENT_3D('',#295,#243,#244);
#203=AXIS2_PLACEMENT_3D('',#297,#245,#246);
#204=AXIS2_PLACEMENT_3D('',#299,#247,#248);
#205=AXIS2_PLACEMENT_3D('',#301,#250,#251);
#206=AXIS2_PLACEMENT_3D('',#307,#255,#256);
#207=AXIS2_PLACEMENT_3D('',#308,#257,#258);
#208=AXIS2_PLACEMENT_3D('',#309,#259,#260);
#209=AXIS2_PLACEMENT_3D('',#310,#261,#262);
#210=AXIS2_PLACEMENT_3D('',#311,#263,#264);
#211=DIRECTION('axis',(0.,0.,1.));
#212=DIRECTION('refdir',(1.,0.,0.));
#213=DIRECTION('center_axis',(0.,0.,-1.));
#214=DIRECTION('ref_axis',(-1.,0.,0.));
#215=DIRECTION('center_axis',(0.,0.,1.));
#216=DIRECTION('ref_axis',(-1.,0.,0.));
#217=DIRECTION('',(-0.707106781186547,-8.65956056235493E-17,0.707106781186548));
#218=DIRECTION('center_axis',(0.,0.,1.));
#219=DIRECTION('ref_axis',(-1.,0.,0.));
#220=DIRECTION('center_axis',(0.,0.,1.));
#221=DIRECTION('ref_axis',(-1.,0.,0.));
#222=DIRECTION('',(0.,0.,1.));
#223=DIRECTION('center_axis',(0.,0.,-1.));
#224=DIRECTION('ref_axis',(-1.,0.,0.));
#225=DIRECTION('center_axis',(0.,0.,-1.));
#226=DIRECTION('ref_axis',(-1.,0.,0.));
#227=DIRECTION('center_axis',(0.,0.,1.));
#228=DIRECTION('ref_axis',(-1.,0.,0.));
#229=DIRECTION('',(-0.707106781186547,-8.65956056235493E-17,0.707106781186548));
#230=DIRECTION('center_axis',(0.,0.,1.));
#231=DIRECTION('ref_axis',(-1.,0.,0.));
#232=DIRECTION('center_axis',(0.,0.,1.));
#233=DIRECTION('ref_axis',(-1.,0.,0.));
#234=DIRECTION('',(0.,0.,1.));
#235=DIRECTION('center_axis',(0.,0.,-1.));
#236=DIRECTION('ref_axis',(-1.,0.,0.));
#237=DIRECTION('center_axis',(1.,0.,0.));
#238=DIRECTION('ref_axis',(0.,1.,0.));
#239=DIRECTION('',(0.,1.,0.));
#240=DIRECTION('',(0.,0.,1.));
#241=DIRECTION('',(0.,1.,0.));
#242=DIRECTION('',(0.,0.,1.));
#243=DIRECTION('center_axis',(0.,0.,1.));
#244=DIRECTION('ref_axis',(-1.,4.55476112666731E-16,0.));
#245=DIRECTION('center_axis',(0.,0.,1.));
#246=DIRECTION('ref_axis',(-1.,4.55476112666731E-16,0.));
#247=DIRECTION('center_axis',(0.,0.,1.));
#248=DIRECTION('ref_axis',(-1.,4.55476112666731E-16,0.));
#249=DIRECTION('',(0.,0.,1.));
#250=DIRECTION('center_axis',(-1.,0.,0.));
#251=DIRECTION('ref_axis',(0.,-1.,0.));
#252=DIRECTION('',(0.,-1.,0.));
#253=DIRECTION('',(0.,-1.,0.));
#254=DIRECTION('',(0.,0.,1.));
#255=DIRECTION('center_axis',(0.,0.,1.));
#256=DIRECTION('ref_axis',(1.,0.,0.));
#257=DIRECTION('center_axis',(0.,0.,1.));
#258=DIRECTION('ref_axis',(1.,0.,0.));
#259=DIRECTION('center_axis',(0.,0.,1.));
#260=DIRECTION('ref_axis',(1.,0.,0.));
#261=DIRECTION('center_axis',(0.,0.,1.));
#262=DIRECTION('ref_axis',(1.,0.,0.));
#263=DIRECTION('center_axis',(0.,0.,1.));
#264=DIRECTION('ref_axis',(1.,0.,0.));
#265=CARTESIAN_POINT('',(0.,0.,0.));
#266=CARTESIAN_POINT('Origin',(0.365427181526452,17.7019975676713,0.06325));
#267=CARTESIAN_POINT('',(1.75642718152645,17.7019975676713,-1.30104260698261E-16));
#268=CARTESIAN_POINT('Origin',(0.365427181526452,17.7019975676713,0.));
#269=CARTESIAN_POINT('',(1.62992718152645,17.7019975676713,0.126500000000001));
#270=CARTESIAN_POINT('',(1.69317718152645,17.7019975676713,0.06325));
#271=CARTESIAN_POINT('Origin',(0.365427181526452,17.7019975676713,0.1265));
#272=CARTESIAN_POINT('Origin',(0.365427181526452,17.7019975676713,1.));
#273=CARTESIAN_POINT('',(1.62992718152645,17.7019975676713,2.));
#274=CARTESIAN_POINT('',(1.62992718152645,17.7019975676713,1.));
#275=CARTESIAN_POINT('Origin',(0.365427181526452,17.7019975676713,2.));
#276=CARTESIAN_POINT('Origin',(0.365427181526452,-19.2980024323287,0.06325));
#277=CARTESIAN_POINT('',(1.75642718152645,-19.2980024323287,-1.30104260698261E-16));
#278=CARTESIAN_POINT('Origin',(0.365427181526452,-19.2980024323287,0.));
#279=CARTESIAN_POINT('',(1.62992718152645,-19.2980024323287,0.126500000000001));
#280=CARTESIAN_POINT('',(1.69317718152645,-19.2980024323287,0.06325));
#281=CARTESIAN_POINT('Origin',(0.365427181526452,-19.2980024323287,0.1265));
#282=CARTESIAN_POINT('Origin',(0.365427181526452,-19.2980024323287,1.));
#283=CARTESIAN_POINT('',(1.62992718152645,-19.2980024323287,2.));
#284=CARTESIAN_POINT('',(1.62992718152645,-19.2980024323287,1.));
#285=CARTESIAN_POINT('Origin',(0.365427181526452,-19.2980024323287,2.));
#286=CARTESIAN_POINT('Origin',(10.1154271815265,-19.2980024323287,0.));
#287=CARTESIAN_POINT('',(10.1154271815265,-19.2980024323287,0.));
#288=CARTESIAN_POINT('',(10.1154271815265,17.7019975676713,0.));
#289=CARTESIAN_POINT('',(10.1154271815265,-19.2980024323287,0.));
#290=CARTESIAN_POINT('',(10.1154271815265,17.7019975676713,2.));
#291=CARTESIAN_POINT('',(10.1154271815265,17.7019975676713,0.));
#292=CARTESIAN_POINT('',(10.1154271815265,-19.2980024323287,2.));
#293=CARTESIAN_POINT('',(10.1154271815265,-19.2980024323287,2.));
#294=CARTESIAN_POINT('',(10.1154271815265,-19.2980024323287,0.));
#295=CARTESIAN_POINT('Origin',(0.365427181526452,-19.2980024323287,0.));
#296=CARTESIAN_POINT('',(-9.38457281847355,-19.2980024323287,0.));
#297=CARTESIAN_POINT('Origin',(0.365427181526452,-19.2980024323287,0.));
#298=CARTESIAN_POINT('',(-9.38457281847355,-19.2980024323287,2.));
#299=CARTESIAN_POINT('Origin',(0.365427181526452,-19.2980024323287,2.));
#300=CARTESIAN_POINT('',(-9.38457281847355,-19.2980024323287,0.));
#301=CARTESIAN_POINT('Origin',(-9.38457281847355,17.7019975676713,0.));
#302=CARTESIAN_POINT('',(-9.38457281847355,17.7019975676713,0.));
#303=CARTESIAN_POINT('',(-9.38457281847355,17.7019975676713,0.));
#304=CARTESIAN_POINT('',(-9.38457281847355,17.7019975676713,2.));
#305=CARTESIAN_POINT('',(-9.38457281847355,17.7019975676713,2.));
#306=CARTESIAN_POINT('',(-9.38457281847355,17.7019975676713,0.));
#307=CARTESIAN_POINT('Origin',(0.365427181526452,17.7019975676713,0.));
#308=CARTESIAN_POINT('Origin',(0.365427181526452,17.7019975676713,0.));
#309=CARTESIAN_POINT('Origin',(0.365427181526452,17.7019975676713,2.));
#310=CARTESIAN_POINT('Origin',(0.365427181526452,-0.79800243232873,2.));
#311=CARTESIAN_POINT('Origin',(0.365427181526452,-0.79800243232873,0.));
#312=UNCERTAINTY_MEASURE_WITH_UNIT(LENGTH_MEASURE(0.01),#316,
'DISTANCE_ACCURACY_VALUE',
'Maximum model space distance between geometric entities at asserted c
onnectivities');
#313=UNCERTAINTY_MEASURE_WITH_UNIT(LENGTH_MEASURE(0.01),#316,
'DISTANCE_ACCURACY_VALUE',
'Maximum model space distance between geometric entities at asserted c
onnectivities');
#314=(
GEOMETRIC_REPRESENTATION_CONTEXT(3)
GLOBAL_UNCERTAINTY_ASSIGNED_CONTEXT((#312))
GLOBAL_UNIT_ASSIGNED_CONTEXT((#316,#318,#319))
REPRESENTATION_CONTEXT('','3D')
);
#315=(
GEOMETRIC_REPRESENTATION_CONTEXT(3)
GLOBAL_UNCERTAINTY_ASSIGNED_CONTEXT((#313))
GLOBAL_UNIT_ASSIGNED_CONTEXT((#316,#318,#319))
REPRESENTATION_CONTEXT('','3D')
);
#316=(
LENGTH_UNIT()
NAMED_UNIT(*)
SI_UNIT(.MILLI.,.METRE.)
);
#317=(
LENGTH_UNIT()
NAMED_UNIT(*)
SI_UNIT($,.METRE.)
);
#318=(
NAMED_UNIT(*)
PLANE_ANGLE_UNIT()
SI_UNIT($,.RADIAN.)
);
#319=(
NAMED_UNIT(*)
SI_UNIT($,.STERADIAN.)
SOLID_ANGLE_UNIT()
);
#320=SHAPE_DEFINITION_REPRESENTATION(#321,#322);
#321=PRODUCT_DEFINITION_SHAPE('',$,#324);
#322=SHAPE_REPRESENTATION('',(#190),#314);
#323=PRODUCT_DEFINITION_CONTEXT('part definition',#328,'design');
#324=PRODUCT_DEFINITION('ShellConnector','ShellConnector v2',#325,#323);
#325=PRODUCT_DEFINITION_FORMATION('',$,#330);
#326=PRODUCT_RELATED_PRODUCT_CATEGORY('ShellConnector v2',
'ShellConnector v2',(#330));
#327=APPLICATION_PROTOCOL_DEFINITION('international standard',
'automotive_design',2009,#328);
#328=APPLICATION_CONTEXT(
'Core Data for Automotive Mechanical Design Process');
#329=PRODUCT_CONTEXT('part definition',#328,'mechanical');
#330=PRODUCT('ShellConnector','ShellConnector v2',$,(#329));
#331=PRESENTATION_STYLE_ASSIGNMENT((#332));
#332=SURFACE_STYLE_USAGE(.BOTH.,#333);
#333=SURFACE_SIDE_STYLE('',(#334));
#334=SURFACE_STYLE_FILL_AREA(#335);
#335=FILL_AREA_STYLE('Steel - Satin',(#336));
#336=FILL_AREA_STYLE_COLOUR('Steel - Satin',#337);
#337=COLOUR_RGB('Steel - Satin',0.627450980392157,0.627450980392157,0.627450980392157);
ENDSEC;
END-ISO-10303-21;
